# xmcd
#
# Track frame offsets:
#  150
#  15202
#  32984
#  64280
#  85661
#  106736
#  123241
#  141597
#  157849
#  176422
#  191759
#  207535
#
# Disc length: 2997 seconds
#
# Revision: 0
# Processed by: cddbd v1.4PL0 Copyright (c) Steve Scherf et al.
# Submitted via: AltoMP3_Maker 3.0
#
DISCID=9d0bb30c
DTITLE=Jais - Jais
DYEAR=1900
DGENRE=
TTITLE0=Stai
TTITLE1=Te visez
TTITLE2=Te iubesc
TTITLE3=De ce
TTITLE4=E vina mea
TTITLE5=Just a heart
TTITLE6=Simt
TTITLE7=Senzatie
TTITLE8=Impreuna
TTITLE9=Plec
TTITLE10=Am ceva pentru tine
TTITLE11=Chiar nu simti
EXTD=
EXTT0=
EXTT1=
EXTT2=
EXTT3=
EXTT4=
EXTT5=
EXTT6=
EXTT7=
EXTT8=
EXTT9=
EXTT10=
EXTT11=
PLAYORDER=
